<svg aria-hidden="true" style="width:0;height:0;position:absolute;overflow:hidden" xmlns="http://www.w3.org/2000/svg"><defs><symbol id="icon-arrow" viewBox="0 0 82 32"><path d="M81.414 17.414c.362-.362.586-.862.586-1.414s-.224-1.052-.586-1.414L68.686 1.858a2 2 0 1 0-2.829 2.827l.001.001L77.172 16 65.858 27.314a2 2 0 0 0 2.829 2.827l-.001.001 12.728-12.728zM0 18h80v-4H0v4z"/></symbol><symbol id="icon-cow" viewBox="0 0 32 32"><path d="M6.434.779c-.254.219-.98 1.733-1.241 2.559-.31 1.024-.415 1.793-.374 2.852.056 1.514.437 2.663 1.275 3.862.219.315.395.586.395.607 0 .015-.134.029-.303.029-.727 0-2.087.241-3.129.555-1.656.497-2.628 1.368-2.628 2.341 0 .343.31.928.641 1.229.641.578 2.043 1.126 3.551 1.389.522.095 2.072.256 2.417.264.063 0 .085.336.085 1.44 0 .951.035 1.69.106 2.143.253 1.624 1.042 3.343 2.085 4.557l.36.417-.24.388c-.352.549-.486.965-.528 1.587-.106 1.492.824 2.816 2.621 3.745 3.423 1.777 8.744 1.082 10.738-1.404.972-1.215 1.085-2.604.317-3.862l-.24-.388.43-.519c.804-.965 1.325-1.931 1.719-3.153.331-1.038.459-2.041.459-3.628 0-.724.021-1.324.056-1.324.324-.008 1.882-.176 2.375-.264 1.515-.263 2.89-.805 3.551-1.389.331-.3.641-.885.641-1.229 0-1.083-1.099-1.96-3.143-2.487-.669-.176-1.93-.388-2.543-.424l-.289-.023.317-.439c.395-.534.888-1.572 1.078-2.253.536-1.967.204-4.256-.944-6.444-.48-.906-.811-1.118-1.198-.76-.148.138-.212.329-.352 1.017-.437 2.187-1.248 3.921-2.431 5.2l-.522.571H10.399l-.465-.505C8.779 5.764 7.94 3.965 7.503 1.77c-.141-.688-.204-.877-.352-1.017-.233-.212-.459-.205-.718.022zm.902 4.337c.374.819.839 1.587 1.388 2.296l.437.563-.458.344c-.43.329-.831.797-1.142 1.331l-.133.242-.338-.461c-1.156-1.594-1.445-3.547-.831-5.573.296-.98.289-.973.556-.125.127.409.367 1.031.522 1.382zm18.34-1.544c.255.709.403 1.527.403 2.379l-.001.09v-.005c0 1.331-.352 2.457-1.092 3.467l-.331.453-.247-.417a4.392 4.392 0 0 0-1.221-1.344l-.013-.009c-.19-.124-.337-.248-.337-.263 0-.022.133-.19.303-.373.782-.87 1.62-2.435 2.037-3.781.126-.418.253-.761.274-.761s.127.256.225.562zm-3.599 5.347c.782.329 1.529 1.272 1.649 2.069.063.44.211.717.401.761.085.015.67.066 1.297.109 2.226.147 3.98.622 4.728 1.273.345.307.31.563-.106.878-.831.629-2.628 1.104-4.461 1.185-1.212.051-1.466.086-1.628.255-.119.125-.133.256-.133 1.58 0 1.793-.092 2.824-.317 3.657-.317 1.133-.944 2.341-1.677 3.197l-.303.351-.627-.373a7.62 7.62 0 0 0-2.273-.933l-.053-.01c-2.671-.636-5.623-.248-7.61 1.002l-.459.292-.289-.343c-.395-.461-1.015-1.448-1.261-2.004-.542-1.258-.704-2.282-.704-4.535 0-2.187.112-2.026-1.508-2.114-2.072-.11-3.651-.483-4.644-1.112-.733-.468-.613-.885.409-1.376.979-.476 2.325-.76 4.192-.877 1.452-.095 1.486-.117 1.62-.819.197-1.061.979-1.938 1.966-2.216.247-.073 1.627-.087 5.855-.08l5.532.014.401.169zm-3.961 15.139c1.727.424 3.016 1.214 3.573 2.194.134.227.19.461.218.819.029.446.008.555-.162.921-.782 1.661-3.657 2.757-6.581 2.509-3.516-.292-5.828-2.253-4.918-4.176.493-1.038 2.163-2.033 3.924-2.326.289-.043.578-.095.634-.11s.691-.015 1.41 0c.978.023 1.451.066 1.902.169z"/><path d="M11.127 12.582c-.437.147-.733.337-1.127.732-.346.329-.374.716-.085.951.268.219.522.19.845-.095.409-.358.727-.504 1.121-.504.395-.008.697.132 1.119.504.324.286.578.314.846.095.141-.117.183-.212.183-.432 0-.227-.049-.329-.297-.578-.697-.702-1.733-.972-2.607-.673zm8.215-.006c-.45.168-1.029.549-1.261.833-.226.279-.234.593 0 .827.232.248.514.234.852-.044.831-.688 1.452-.709 2.22-.074.197.169.422.3.493.3.345 0 .627-.307.627-.673 0-.234-.585-.775-1.113-1.031-.585-.286-1.282-.337-1.818-.138zm-7.194 13.538c-.204.197-.275.483-.17.709.078.183.197.256.683.388.219.058.311.131.388.314.099.242.106.242.649.264l.542.022v-.205c-.007-.292-.17-.716-.381-1.009-.247-.337-.677-.556-1.163-.6-.331-.029-.415-.015-.549.118zm6.729-.052c-.352.095-.859.571-1 .943-.07.196-.118.423-.134.659v.008c-.014.314.014.388.183.542.415.365.965.08.965-.505 0-.285.211-.483.585-.555.395-.074.536-.234.542-.607 0-.49-.437-.68-1.142-.483z"/></symbol><symbol id="icon-Ellipse" viewBox="0 0 32 32"><path d="M32.03 16.015c0 8.845-7.17 16.015-16.015 16.015S0 24.86 0 16.015 7.17 0 16.015 0 32.03 7.17 32.03 16.015z"/></symbol><symbol id="icon-Ellipse7" viewBox="0 0 32 32"><path d="M32.03 16.164c0 6.404-7.17 11.595-16.015 11.595S0 22.568 0 16.164C0 9.76 7.17 4.569 16.015 4.569S32.03 9.76 32.03 16.164z"/></symbol><symbol id="icon-eva_menu-fill" viewBox="0 0 32 32"><path d="M26.742 14.672H5.268c-.7 0-1.267.567-1.267 1.266v.134c0 .7.567 1.266 1.267 1.266h21.474c.7 0 1.267-.567 1.267-1.266v-.134c0-.7-.567-1.266-1.267-1.266zm0 6.669H5.268c-.7 0-1.267.567-1.267 1.267v.133c0 .7.567 1.267 1.267 1.267h21.474c.7 0 1.267-.567 1.267-1.267v-.133c0-.7-.567-1.267-1.267-1.267zm0-13.338H5.268c-.7 0-1.267.567-1.267 1.267v.133c0 .7.567 1.267 1.267 1.267h21.474c.7 0 1.267-.567 1.267-1.267V9.27c0-.7-.567-1.267-1.267-1.267z"/></symbol><symbol id="icon-facebooks" viewBox="0 0 16 32"><path d="M14.143 15.971H10.11v14.865H3.998V15.971H1.092v-5.222h2.906V7.367c0-2.417 1.142-6.204 6.167-6.204l4.527.019v5.072h-3.284c-.538 0-1.297.272-1.297 1.425v3.073h4.567l-.534 5.219z"/></symbol><symbol id="icon-gits" viewBox="0 0 32 32"><path d="M16 0C7.211 0 0 7.211 0 16c0 7.499 5.262 14.312 12.25 16v-5.293a3.921 3.921 0 0 1-2.062-.06l.028.007c-.946-.278-1.714-.909-2.285-1.869-.363-.613-1.008-1.28-1.68-1.23l-.165-1.867c1.454-.125 2.71.886 3.456 2.139.333.558.715.885 1.205 1.029.472.141.981.074 1.573-.136.149-1.186.693-1.629 1.104-2.256-4.168-.621-5.829-2.832-6.488-4.576-.874-2.318-.405-5.213 1.139-7.043.03-.035.085-.128.064-.192-.709-2.141.154-3.91.186-4.098.818.24.95-.243 3.552 1.336l.448.27c.189.112.128.048.317.032a13.246 13.246 0 0 1 3.349-.469h.01c1.136.014 2.272.176 3.403.483l.146.016c-.013-.003.04-.01.128-.062 3.248-1.968 3.131-1.325 4.003-1.608.032.189.882 1.987.182 4.099-.096.291 2.816 2.957 1.202 7.235-.659 1.744-2.32 3.957-6.486 4.578.534.816 1.176 1.248 1.173 2.928v6.606c6.986-1.688 12.25-8.501 12.25-16 0-8.789-7.211-16-16-16z"/></symbol><symbol id="icon-ice-crema" viewBox="0 0 32 32"><path d="M16.111.107c.08.215.241 1.253.241 1.574v.011c0 .818-.318 1.562-.838 2.114l.001-.002c-.449.482-.898.749-1.975 1.185-1.198.489-1.694.783-2.256 1.339-.569.569-.904 1.191-1.024 1.922-.134.797 0 1.358.408 1.68l.207.16-.328.208c-.662.436-1.867 1.46-2.075 1.774-.402.603-.362 1.165.093 1.393l.214.107-.241.228c-.362.341-.436.576-.382 1.191.034.409.02.63-.073.965-.114.436-.114.442.033.75.148.301.563.683.938.844.18.08.187.107.228.723.02.356.053 1.486.08 2.518.02 1.031.068 1.975.107 2.089.034.12.161.281.276.361.388.268.656.557.829.891.195.382.409 1.319 1.058 4.56l.455 2.276.282.268c.535.529 1.56.77 3.248.77 1.694 0 2.704-.235 3.241-.764l.288-.274.414-2.11c.917-4.613.997-4.867 1.714-5.436.22-.181.436-.402.475-.502.047-.114.094-.991.127-2.317.027-1.178.068-2.343.094-2.592l.04-.448.436-.329c.549-.421.763-.803.763-1.392-.006-.696-.462-1.46-1.292-2.143l-.396-.321.195-.276c.81-1.117.301-2.664-1.206-3.695l-.455-.315.167-.174c.743-.797.864-3.174.241-4.827-.374-.984-1.232-2.055-2.283-2.846-.514-.389-1.935-1.246-2.061-1.246-.027 0-.027.047-.006.107zm1.927 2.338c.356.349.783.823.951 1.064.997 1.393 1.252 3.141.649 4.426-.241.522-.965 1.298-1.634 1.76-1.024.71-3.328 1.903-4.934 2.558-2.584 1.052-4.085 1.253-4.258.563-.068-.261.127-.469.951-1.018.742-.509 4.077-2.986 4.137-3.087.02-.027-.321.127-.749.341-1.453.737-2.143.596-2.109-.428.02-.743.556-1.587 1.298-2.069.188-.12.771-.388 1.307-.603 1.76-.709 2.296-1.071 2.892-1.961.356-.529.743-1.507.77-1.922.007-.147.034-.261.053-.261s.322.288.676.637zm1.828 7.606c.489.274.997.743 1.218 1.111.389.662.188 1.326-.649 2.169-.91.925-2.463 1.808-4.171 2.37-1.574.516-3.08.757-5.236.83l-1.339.047.871.053c1.125.074 3.3.007 4.144-.127 2.243-.356 4.152-1.065 5.517-2.042.308-.221.629-.402.717-.402.221 0 1.185.925 1.38 1.312.107.221.133.382.114.596-.1.891-1.186 1.366-3.803 1.68-3.2.382-7.385.007-9.173-.816-.845-.389-.984-.61-.77-1.198.067-.188.08-.409.053-.724-.034-.415-.027-.469.12-.622.335-.362.898-.569 2.96-1.092.723-.187 1.707-.482 2.175-.656 1.138-.415 3.274-1.494 4.265-2.156.931-.616 1.065-.643 1.607-.334zm-8.892 8.195c1.406.409 2.652.529 4.969.482 1.741-.033 2.812-.14 4.358-.415.316-.053.589-.1.623-.1.074 0 .053 2.571-.027 3.248-.087.717-.282 1.272-.489 1.406-.214.14-1.286.288-2.719.368-2.939.16-5.959 0-6.896-.375-.509-.207-.563-.476-.569-2.96 0-1.654.013-1.881.1-1.847.053.02.348.107.649.194zm1.587 5.692c.482.06 1.005.12 1.165.14l.289.034-.255.281c-.328.355-.83 1.064-1.011 1.426-.207.415-.275.442-.582.275l-.261-.148-.147-.91a23.34 23.34 0 0 0-.216-1.217l.028.165c-.06-.173-.121-.173.99-.046zm7.138-.074c0 .013-.034.187-.068.382-.04.2-.207 1.292-.374 2.43-.341 2.377-.569 3.495-.777 3.87-.288.502-.978.797-2.095.891-.436.034-1.748-.053-1.822-.121-.053-.06 1.098-1.486 1.279-1.58.167-.094.213-.08.782.213.663.349.998.403.998.181s-.174-.436-.603-.729c-.395-.282-.535-.443-.535-.63 0-.053.194-.355.428-.669s.575-.817.749-1.118l.329-.542.3.041c.609.087.77.08.75-.053-.013-.068-.127-.261-.255-.422-.127-.167-.228-.335-.228-.368 0-.127.622-1.299.824-1.547.174-.214.315-.322.315-.228zm-4.185.535c.334.221 1.593 1.313 1.673 1.446.034.06-1.258 2.082-1.513 2.37-.027.034-.167-.033-.308-.14a20.117 20.117 0 0 0-1.08-.752l-.085-.052-.904-.596.542-.917c.964-1.614.944-1.587 1.151-1.587.107 0 .341.1.523.228zm2.538.241c-.235.288-.428.469-.509.469-.174 0-.456-.154-.931-.502l-.396-.288.791-.047c.348-.013.665-.034.98-.065l-.064.005c.536-.087.536-.08.128.428zm-5.062 3.221c.616.241 1.661.81 1.962 1.065.214.173.214.187.127.401a6.654 6.654 0 0 1-.43.741l.015-.024a10.9 10.9 0 0 0-.417.682l-.032.061c-.213.415-.281.449-.723.329-.476-.141-.729-.382-.863-.818-.181-.609-.469-2.329-.436-2.598.013-.1.294-.04.797.161z"/></symbol><symbol id="icon-telegrams" viewBox="0 0 44 32"><path d="m17.346 21.048-.676 8.86c.966 0 1.384-.388 1.886-.852l4.528-4.04 9.38 6.414c1.72.894 2.932.422 3.396-1.478L42.02 3.02C42.566.648 41.1-.28 39.424.3L3.23 13.234C.76 14.13.798 15.414 2.81 16l9.254 2.686L33.558 6.134c1.01-.626 1.93-.28 1.174.346L17.346 21.05z"/></symbol><symbol id="icon-Vectorclose" viewBox="0 0 32 32"><path d="M18.16 16.01 30.799 3.369a1.526 1.526 0 0 0-2.152-2.149l.002-.002L16.01 13.859 3.369 1.204a1.532 1.532 0 1 0-2.166 2.162l.001.001 12.657 12.641L1.204 28.649a1.526 1.526 0 1 0 2.149 2.153l.002-.002 12.657-12.641L28.653 30.8a1.526 1.526 0 0 0 2.149-2.152l.002.002-12.641-12.641z"/></symbol><symbol id="icon-Vectornext" viewBox="0 0 32 32"><path d="M8.611.704A2.587 2.587 0 0 0 8 2.379v.028-.001c0 .637.221 1.248.611 1.699l10.346 11.91L8.608 27.919a2.596 2.596 0 0 0-.586 1.648v.05-.003c.003.63.224 1.232.611 1.68s.912.698 1.459.704a1.947 1.947 0 0 0 1.47-.673l.002-.002 11.821-13.61c.382-.45.614-1.037.614-1.679v-.021.001a2.61 2.61 0 0 0-.611-1.702L11.567.702a1.958 1.958 0 0 0-1.477-.704h-.001c-.554 0-1.088.256-1.482.704z"/></symbol><symbol id="icon-Vectorplay" viewBox="0 0 32 32"><path d="M29.9 13.807 3.36.537A2.366 2.366 0 0 0-.001 2.65V29.199a2.355 2.355 0 0 0 3.442 2.089l-.013.006 26.471-13.27c.78-.398 1.305-1.195 1.305-2.114s-.525-1.717-1.291-2.108l-.013-.006v.011z"/></symbol><symbol id="icon_weight" viewBox="0 0 32 32"><path d="M14.18.547c-3.975.589-7.248 2.797-8.453 5.686-.384.913-.487 1.474-.487 2.574.007.813.036 1.114.163 1.552.258.862.443 1.302.827 1.92l.356.574-.4.489c-3.154 3.925-3.502 9.446-.871 13.795.982 1.631 2.586 3.235 4.152 4.17l.466.273 12.745-.108.302-.165c1.057-.597 2.549-1.927 3.384-3.005a12.508 12.508 0 0 0 2.413-5.547l.01-.074c.118-.741.118-2.934-.007-3.631-.377-2.149-1.182-3.989-2.453-5.621-.244-.309-.436-.568-.436-.589 0-.014.133-.237.288-.489a7.777 7.777 0 0 0 .864-1.962c.199-.719.199-2.516 0-3.235-.709-2.551-2.837-4.68-5.844-5.852-.843-.331-2.284-.683-3.215-.797-.864-.101-3-.08-3.805.043zm4.498 1.171c3.945.769 6.835 3.184 7.367 6.161.118.669.044 1.805-.155 2.436-.2.619-.569 1.345-1.005 1.963-.178.252-.325.54-.325.633s.155.338.377.582c1.846 2.048 2.822 4.615 2.822 7.39-.007 3.156-1.219 5.924-3.553 8.095-.399.373-.968.841-1.271 1.042l-.554.373-12.213.051-.473-.302c-1.714-1.114-3.258-2.954-4.115-4.909-1.078-2.472-1.19-5.341-.31-7.914.466-1.337 1.086-2.43 2.031-3.58.385-.461.562-.733.562-.862 0-.108-.192-.461-.444-.827-.886-1.287-1.248-2.718-1.034-4.069.222-1.366.842-2.487 1.987-3.601 1.494-1.445 3.577-2.4 6.022-2.76 1.012-.151 3.25-.093 4.285.1z"/><path d="M14.512 2.984c-3.029.496-5.401 2.178-6.176 4.386-.178.496-.207.69-.207 1.401s.029.907.207 1.402c.11.316.317.756.458.978.384.618.554.64 1.316.18a11.744 11.744 0 0 1 3.727-1.475l.078-.014c.916-.187 2.674-.258 3.672-.143 1.558.18 3.25.74 4.602 1.538.384.222.776.409.871.409.562 0 1.278-1.617 1.278-2.875 0-2.796-2.674-5.19-6.464-5.787-.805-.129-2.587-.129-3.362 0zm3.657 1.15c1.271.273 2.438.791 3.318 1.474 1.182.913 1.817 2.185 1.713 3.414-.036.489-.221 1.15-.332 1.222-.03.014-.445-.158-.917-.389a14.147 14.147 0 0 0-3.132-1.081l-.097-.018c-.687-.143-.975-.165-2.511-.158-1.515 0-1.832.022-2.489.158a13.268 13.268 0 0 0-3.196 1.099l.078-.035c-1.101.525-1.042.532-1.241-.116-.258-.84-.096-1.955.406-2.796.267-.445.998-1.186 1.529-1.552 1.013-.698 1.899-1.013 3.805-1.359.391-.071 2.564.029 3.066.137zm-1.204 9.273c-.207.26-.207.504.007.712.14.137.281.172.791.209a6.48 6.48 0 0 1 2.815.865l-.031-.017c.606.359 1.529 1.23 1.943 1.854.613.898 1.034 2.185 1.034 3.135 0 .331.03.431.185.574.236.237.547.237.776 0 .163-.165.169-.208.125-.912-.207-3.48-3.184-6.383-6.745-6.579l-.74-.043-.162.202z"/></symbol></defs></svg>