<svg aria-hidden="true" style="position: absolute; width: 0; height: 0; overflow: hidden;" version="1.1" xmlns="http://www.w3.org/2000/svg" xmlns:xlink="http://www.w3.org/1999/xlink">
<defs>
<symbol id="Frame-10" viewBox="0 0 34 32">
<path fill="#f8d24e" style="fill: var(--color1, #f8d24e)" d="M17.184 14.109c1.613-4.366-1.727-6.756-3.942-8.327-0.423-0.321-0.847-0.621-1.19-0.895-0.613-0.516-1.064-1.196-1.301-1.96s-0.248-1.58-0.033-2.351c0.022-0.081 0.022-0.166-0.002-0.246s-0.068-0.153-0.13-0.209c-0.062-0.057-0.138-0.095-0.22-0.112s-0.167-0.010-0.246 0.018c-0.746 0.294-1.439 0.706-2.054 1.22-0.59 0.454-1.069 1.037-1.398 1.703s-0.502 1.4-0.503 2.143c-0.418 0.328-0.787 0.713-1.097 1.144-0.569 0.775-0.855 1.722-0.809 2.681-0.678 0.621-1.183 1.407-1.466 2.281s-0.333 1.806-0.147 2.706c-0.27 0.163-0.479 0.409-0.594 0.701s-0.132 0.615-0.047 0.917 0.268 0.569 0.52 0.758c0.252 0.189 0.559 0.29 0.874 0.288h0.030v2.483c0 0.252 0.1 0.494 0.279 0.672s0.421 0.278 0.674 0.278h0.741l1.207 10.43c0.025 0.232 0.135 0.447 0.31 0.603s0.4 0.242 0.634 0.242h5.022c0.234-0 0.46-0.087 0.635-0.242s0.286-0.37 0.313-0.602l1.207-10.43h0.741c0.253 0 0.495-0.1 0.674-0.278s0.279-0.42 0.279-0.672v-2.483h0.030c0.383 0 0.75-0.152 1.021-0.422s0.423-0.636 0.423-1.018c0.002-0.191-0.035-0.38-0.107-0.556s-0.18-0.336-0.316-0.47l-0.013 0.004zM6.315 6.188c0.61 2.284 2.964 3.184 5.111 3.986 0.058 0.035 0.123 0.058 0.19 0.065s0.136 0 0.2-0.021c0.064-0.022 0.123-0.057 0.172-0.104s0.087-0.104 0.111-0.167 0.034-0.131 0.030-0.198c-0.005-0.067-0.024-0.133-0.058-0.192s-0.079-0.11-0.134-0.149c-0.055-0.039-0.118-0.066-0.185-0.078-2.312-0.874-4.492-1.689-4.657-4.024-0.039-0.642 0.082-1.283 0.352-1.867s0.68-1.093 1.194-1.481c0.322-0.267 0.668-0.505 1.033-0.709-0.024 0.292-0.024 0.586 0 0.878 0.049 0.669 0.232 1.322 0.539 1.919s0.731 1.126 1.247 1.557c0.351 0.3 0.788 0.608 1.27 0.937 1.114 0.798 2.38 1.689 3.184 2.897 0.429 0.619 0.696 1.336 0.777 2.084s-0.028 1.505-0.315 2.201h-1.871c-3.857 0-8.29-1.064-9.167-4.045-0.174-0.613-0.172-1.263 0.004-1.875s0.521-1.164 0.995-1.591l-0.021-0.021zM9.787 20.582l1.414 1.41-1.414 1.41-1.414-1.419 1.414-1.402zM13.030 24.286l-1.169 1.165-1.414-1.41 1.414-1.406 1.228 1.22-0.059 0.431zM9.787 27.52l-1.414-1.41 1.414-1.41 1.414 1.41-1.414 1.41zM9.139 24.049l-1.414 1.41-1.177-1.174-0.051-0.422 1.228-1.22 1.414 1.406zM7.073 26.11l-0.284 0.283-0.072-0.642 0.356 0.359zM6.925 27.554l0.8-0.798 1.554 1.562c0.008 0.032 0.018 0.063 0.030 0.093h-2.286l-0.097-0.857zM11.853 26.756l0.8 0.798-0.097 0.845h-2.35l1.647-1.643zM12.785 26.393l-0.284-0.283 0.36-0.359-0.076 0.642zM13.208 22.702l-0.707-0.718 0.898-0.895-0.191 1.613zM11.849 21.342l-1.342-1.334h2.684l-1.342 1.334zM7.721 21.342l-1.342-1.334h2.684l-1.342 1.334zM12.293 30.362h-5.017c-0.008-0.001-0.015-0.004-0.020-0.010s-0.009-0.012-0.010-0.020l-0.119-1.013h5.318l-0.114 1.013c-0.001 0.008-0.005 0.016-0.011 0.021s-0.014 0.008-0.023 0.008h-0.004zM16.176 15.651h-1.474c-0.064-0.006-0.129 0.001-0.19 0.021s-0.117 0.053-0.165 0.096c-0.048 0.043-0.086 0.096-0.112 0.154s-0.040 0.122-0.040 0.186c0 0.064 0.013 0.128 0.040 0.186s0.064 0.111 0.112 0.154c0.048 0.043 0.104 0.076 0.165 0.096s0.126 0.027 0.19 0.021h0.525v2.483c-0.001 0.008-0.005 0.016-0.011 0.021s-0.014 0.008-0.023 0.008h-10.827c-0.008 0-0.016-0.003-0.023-0.008s-0.010-0.013-0.011-0.021v-2.483h8.388c0.114-0.011 0.22-0.064 0.297-0.149s0.12-0.195 0.12-0.309-0.043-0.225-0.12-0.309c-0.077-0.085-0.183-0.138-0.297-0.149h-9.315c-0.073 0.006-0.146-0.002-0.215-0.025s-0.133-0.061-0.186-0.11c-0.054-0.049-0.097-0.109-0.126-0.175s-0.045-0.139-0.045-0.211c0-0.073 0.015-0.145 0.045-0.211s0.072-0.126 0.126-0.175c0.054-0.049 0.117-0.086 0.186-0.11s0.142-0.032 0.215-0.025h0.961c0.114-0.011 0.22-0.064 0.297-0.149s0.12-0.195 0.12-0.309c0-0.114-0.043-0.225-0.12-0.309s-0.183-0.138-0.297-0.149h-0.847c-0.121-0.643-0.102-1.304 0.058-1.938s0.455-1.226 0.865-1.736c0.296 0.921 1.059 2.179 2.964 3.18 1.791 0.933 4.162 1.41 7.046 1.41h1.694c0.073-0.006 0.146 0.002 0.215 0.025s0.133 0.061 0.186 0.11c0.054 0.049 0.097 0.109 0.126 0.175s0.045 0.138 0.045 0.211c0 0.073-0.015 0.145-0.045 0.211s-0.072 0.126-0.126 0.175c-0.054 0.049-0.117 0.086-0.186 0.11s-0.142 0.032-0.215 0.025h0.030z"></path>
<path fill="#f8d24e" style="fill: var(--color1, #f8d24e)" d="M19.859 28.392l-0.342 0.525 0.007 0.004 0.335-0.529zM23.541 28.569l0.626-0.014-0.016-0.725-0.715 0.121 0.105 0.617zM23.584 30.495l0.159 0.606 0.478-0.126-0.011-0.494-0.626 0.014zM18.752 30.587l0.141-0.61-0.004-0.001-0.137 0.611zM16.367 29.523l0.405-0.478-0.001-0.001-0.404 0.478zM15.505 27.566l0.626 0.003v-0.003h-0.626zM15.804 26.196l-0.562-0.276-0 0.001 0.562 0.276zM17.725 24.557l0.222 0.586 0.002-0.001-0.224-0.585zM23.877 24.398l0.624 0.049 0.041-0.529-0.515-0.128-0.151 0.608zM23.724 26.361l-0.117 0.615 0.687 0.13 0.054-0.697-0.624-0.049zM22.054 25.557c-0.94 0-1.73 0.1-2.307 0.354-0.296 0.13-0.565 0.313-0.761 0.571-0.202 0.267-0.298 0.577-0.298 0.905h1.252c0-0.073 0.018-0.114 0.044-0.149 0.032-0.043 0.106-0.111 0.267-0.182 0.336-0.148 0.916-0.248 1.803-0.248v-1.252zM18.688 27.389c0 0.644 0.289 1.176 0.829 1.528l0.684-1.049c-0.186-0.121-0.26-0.258-0.26-0.478h-1.252zM19.524 28.921c0.512 0.324 1.186 0.446 1.944 0.446v-1.253c-0.654 0-1.051-0.111-1.273-0.251l-0.67 1.058zM21.467 29.366c0.743 0 1.469-0.060 2.178-0.18l-0.21-1.235c-0.637 0.108-1.293 0.162-1.968 0.162v1.253zM22.915 28.583l0.043 1.926 1.252-0.028-0.043-1.926-1.252 0.028zM23.424 29.89c-0.716 0.188-1.506 0.285-2.373 0.285v1.252c0.96 0 1.858-0.107 2.691-0.326l-0.319-1.211zM21.052 30.175c-0.885 0-1.601-0.070-2.159-0.198l-0.281 1.221c0.681 0.157 1.498 0.23 2.44 0.23v-1.252zM18.889 29.976c-0.598-0.134-1.029-0.276-1.317-0.416l-0.55 1.125c0.413 0.202 0.952 0.37 1.594 0.513l0.273-1.222zM17.571 29.56c-0.309-0.151-0.574-0.323-0.799-0.514l-0.81 0.955c0.313 0.265 0.667 0.493 1.060 0.685l0.55-1.125zM16.771 29.045c-0.426-0.36-0.644-0.83-0.64-1.476l-1.252-0.006c-0.005 0.985 0.352 1.82 1.084 2.438l0.809-0.957zM16.131 27.566c0-0.421 0.083-0.782 0.236-1.094l-1.125-0.551c-0.246 0.503-0.364 1.055-0.364 1.645h1.252zM16.366 26.472c0.285-0.579 0.788-1.029 1.581-1.33l-0.444-1.171c-1.034 0.392-1.811 1.035-2.26 1.948l1.124 0.553zM17.949 25.142c0.833-0.32 1.763-0.484 2.797-0.484v-1.253c-1.168 0-2.252 0.186-3.246 0.568l0.449 1.169zM20.746 24.657c1.054 0 2.047 0.117 2.981 0.348l0.301-1.216c-1.040-0.258-2.134-0.385-3.282-0.385v1.253zM23.253 24.349l-0.153 1.963 1.249 0.097 0.153-1.963-1.249-0.097zM23.841 25.746c-0.652-0.124-1.248-0.188-1.786-0.188v1.252c0.441 0 0.957 0.053 1.553 0.166l0.233-1.231zM29.951 26.746l-0.003 0.626 0.636 0.004-0.007-0.636-0.626 0.007zM29.682 25.933l-0.426 0.459 0.005 0.005 0.421-0.464zM28.123 25.994l0.434 0.452 0.005-0.004-0.438-0.447zM27.743 26.734l-0.618-0.102-0.119 0.724 0.733 0.004 0.003-0.626zM32.349 30.073l0.378 0.499 0.225-0.171 0.021-0.282-0.624-0.047zM30.997 30.575l-0.135-0.612-0.004 0.001 0.138 0.611zM26.3 30.404l-0.214 0.589 0.005 0.002 0.208-0.59zM25.23 29.835l-0.389 0.491 0.008 0.006 0.381-0.497zM24.514 28.936l-0.561 0.278 0.001 0.003 0.56-0.28zM25.248 25.138l0.416 0.468 0-0-0.417-0.467zM30.973 24.459l0.25-0.574-0.006-0.003-0.245 0.576zM32.41 25.78l-0.563 0.274 0.002 0.003 0.562-0.277zM32.654 26.875l0.625 0.045 0.002-0.023v-0.023h-0.626zM32.581 27.884l-0.003 0.626 0.585 0.003 0.042-0.584-0.625-0.045zM27.621 27.859l0.003-0.626-0.817-0.004 0.208 0.79 0.606-0.16zM28.331 28.734l-0.308 0.545 0.003 0.001 0.306-0.547zM32.134 28.52v-0.626h-0.125l-0.116 0.048 0.241 0.578zM32.465 28.52l0.624 0.047 0.050-0.673h-0.675v0.626zM30.577 26.74c-0.005-0.453-0.109-0.939-0.475-1.271l-0.841 0.928c-0.007-0.007 0.007 0.001 0.025 0.055 0.019 0.057 0.037 0.153 0.039 0.301l1.252-0.013zM30.108 25.474c-0.329-0.305-0.76-0.406-1.184-0.406v1.252c0.244 0 0.318 0.058 0.332 0.071l0.852-0.918zM28.924 25.068c-0.466 0-0.9 0.146-1.239 0.479l0.877 0.895c0.068-0.067 0.169-0.121 0.363-0.121v-1.252zM27.689 25.542c-0.308 0.296-0.494 0.669-0.563 1.090l1.236 0.203c0.029-0.174 0.096-0.294 0.195-0.39l-0.867-0.904zM27.74 27.36l2.208 0.012 0.007-1.253-2.208-0.012-0.007 1.253zM31.97 29.574c-0.137 0.104-0.472 0.249-1.108 0.389l0.269 1.223c0.661-0.145 1.227-0.335 1.595-0.614l-0.757-0.998zM30.859 29.964c-0.607 0.137-1.19 0.205-1.752 0.205v1.252c0.662 0 1.338-0.079 2.028-0.236l-0.277-1.222zM29.107 30.169c-0.59 0-1.076-0.028-1.464-0.080l-0.167 1.241c0.461 0.062 1.006 0.091 1.631 0.091v-1.252zM27.643 30.089c-0.38-0.051-0.758-0.143-1.135-0.276l-0.417 1.181c0.455 0.161 0.917 0.273 1.385 0.336l0.167-1.241zM26.514 29.815c-0.366-0.133-0.664-0.294-0.903-0.477l-0.762 0.994c0.357 0.274 0.772 0.492 1.238 0.661l0.427-1.177zM25.619 29.344c-0.215-0.17-0.398-0.395-0.544-0.688l-1.12 0.56c0.221 0.441 0.515 0.815 0.887 1.11l0.777-0.982zM25.076 28.658c-0.132-0.266-0.21-0.609-0.21-1.050h-1.253c0 0.587 0.105 1.129 0.34 1.605l1.123-0.555zM24.865 27.609c0-0.441 0.079-0.83 0.23-1.176l-1.149-0.499c-0.225 0.518-0.333 1.079-0.333 1.674h1.253zM25.095 26.433c0.158-0.364 0.351-0.633 0.57-0.827l-0.833-0.935c-0.377 0.335-0.669 0.764-0.886 1.264l1.149 0.499zM25.665 25.605c0.673-0.6 1.7-0.948 3.179-0.948v-1.253c-1.66 0-3.031 0.39-4.013 1.266l0.834 0.935zM28.844 24.657c0.664 0 1.29 0.126 1.884 0.378l0.489-1.153c-0.752-0.319-1.544-0.478-2.373-0.478v1.253zM30.722 25.033c0.554 0.242 0.912 0.585 1.124 1.021l1.126-0.548c-0.359-0.738-0.959-1.276-1.75-1.621l-0.501 1.148zM31.848 26.057c0.117 0.237 0.18 0.506 0.18 0.817h1.252c0-0.487-0.1-0.948-0.309-1.372l-1.123 0.555zM32.030 26.829l-0.073 1.009 1.249 0.091 0.073-1.009-1.249-0.091zM32.584 27.258l-4.96-0.024-0.006 1.252 4.96 0.024 0.006-1.252zM27.015 28.019c0.146 0.555 0.505 0.976 1.007 1.26l0.616-1.090c-0.248-0.14-0.363-0.302-0.412-0.489l-1.211 0.319zM28.025 29.281c0.508 0.284 1.143 0.398 1.853 0.398v-1.252c-0.595 0-0.991-0.098-1.242-0.238l-0.611 1.093zM29.878 29.678c0.762 0 1.598-0.206 2.497-0.58l-0.481-1.156c-0.805 0.335-1.473 0.484-2.016 0.484v1.252zM32.134 29.146h0.33v-1.252h-0.33v1.252zM31.84 28.473l-0.116 1.553 1.249 0.093 0.116-1.553-1.249-0.093z"></path>
</symbol>
<symbol id="ep_arrow-right-bold" viewBox="0 0 32 32">
<path d="M10.586 3.272c-0.375 0.375-0.586 0.884-0.586 1.414s0.211 1.039 0.586 1.414l9.9 9.9-9.9 9.9c-0.364 0.377-0.566 0.882-0.561 1.407s0.215 1.026 0.586 1.397c0.371 0.371 0.872 0.581 1.397 0.586s1.030-0.197 1.407-0.561l11.314-11.314c0.375-0.375 0.586-0.884 0.586-1.414s-0.211-1.039-0.586-1.414l-11.314-11.314c-0.375-0.375-0.884-0.586-1.414-0.586s-1.039 0.211-1.414 0.586z"></path>
</symbol>
<symbol id="icon-Arrow" viewBox="0 0 32 32">
  <path  d="M31.776 16.554c0.141-0.141 0.229-0.336 0.229-0.552s-0.087-0.411-0.229-0.552l-4.968-4.968c-0.142-0.147-0.341-0.238-0.561-0.238-0.431 0-0.781 0.35-0.781 0.781 0 0.22 0.091 0.419 0.238 0.561l4.416 4.416-4.416 4.416c-0.136 0.14-0.219 0.331-0.219 0.542 0 0.431 0.349 0.781 0.781 0.781 0.211 0 0.402-0.084 0.543-0.219l4.968-4.968zM0 16.783h31.224v-1.561h-31.224v1.561z"></path>
</symbol>
<symbol id="icon-cow" viewBox="0 0 32 32">
  <path d="M6.434 0.779c-0.254 0.219-0.98 1.733-1.241 2.559-0.31 1.024-0.415 1.793-0.374 2.852 0.056 1.514 0.437 2.663 1.275 3.862 0.219 0.315 0.395 0.586 0.395 0.607 0 0.015-0.134 0.029-0.303 0.029-0.727 0-2.087 0.241-3.129 0.555-1.656 0.497-2.628 1.368-2.628 2.341 0 0.343 0.31 0.928 0.641 1.229 0.641 0.578 2.043 1.126 3.551 1.389 0.522 0.095 2.072 0.256 2.417 0.264 0.063 0 0.085 0.336 0.085 1.44 0 0.951 0.035 1.69 0.106 2.143 0.253 1.624 1.042 3.343 2.085 4.557l0.36 0.417-0.24 0.388c-0.352 0.549-0.486 0.965-0.528 1.587-0.106 1.492 0.824 2.816 2.621 3.745 3.423 1.777 8.744 1.082 10.738-1.404 0.972-1.215 1.085-2.604 0.317-3.862l-0.24-0.388 0.43-0.519c0.804-0.965 1.325-1.931 1.719-3.153 0.331-1.038 0.459-2.041 0.459-3.628 0-0.724 0.021-1.324 0.056-1.324 0.324-0.008 1.882-0.176 2.375-0.264 1.515-0.263 2.89-0.805 3.551-1.389 0.331-0.3 0.641-0.885 0.641-1.229 0-1.083-1.099-1.96-3.143-2.487-0.669-0.176-1.93-0.388-2.543-0.424l-0.289-0.023 0.317-0.439c0.395-0.534 0.888-1.572 1.078-2.253 0.536-1.967 0.204-4.256-0.944-6.444-0.48-0.906-0.811-1.118-1.198-0.76-0.148 0.138-0.212 0.329-0.352 1.017-0.437 2.187-1.248 3.921-2.431 5.2l-0.522 0.571h-11.147l-0.465-0.505c-1.155-1.272-1.994-3.071-2.431-5.266-0.141-0.688-0.204-0.877-0.352-1.017-0.233-0.212-0.459-0.205-0.718 0.022zM7.336 5.116c0.374 0.819 0.839 1.587 1.388 2.296l0.437 0.563-0.458 0.344c-0.43 0.329-0.831 0.797-1.142 1.331l-0.133 0.242-0.338-0.461c-1.156-1.594-1.445-3.547-0.831-5.573 0.296-0.98 0.289-0.973 0.556-0.125 0.127 0.409 0.367 1.031 0.522 1.382zM25.676 3.572c0.255 0.709 0.403 1.527 0.403 2.379 0 0.030-0 0.060-0.001 0.090l0-0.005c0 1.331-0.352 2.457-1.092 3.467l-0.331 0.453-0.247-0.417c-0.319-0.541-0.732-0.992-1.221-1.344l-0.013-0.009c-0.19-0.124-0.337-0.248-0.337-0.263 0-0.022 0.133-0.19 0.303-0.373 0.782-0.87 1.62-2.435 2.037-3.781 0.126-0.418 0.253-0.761 0.274-0.761s0.127 0.256 0.225 0.562zM22.077 8.919c0.782 0.329 1.529 1.272 1.649 2.069 0.063 0.44 0.211 0.717 0.401 0.761 0.085 0.015 0.67 0.066 1.297 0.109 2.226 0.147 3.98 0.622 4.728 1.273 0.345 0.307 0.31 0.563-0.106 0.878-0.831 0.629-2.628 1.104-4.461 1.185-1.212 0.051-1.466 0.086-1.628 0.255-0.119 0.125-0.133 0.256-0.133 1.58 0 1.793-0.092 2.824-0.317 3.657-0.317 1.133-0.944 2.341-1.677 3.197l-0.303 0.351-0.627-0.373c-0.669-0.415-1.445-0.74-2.273-0.933l-0.053-0.010c-2.671-0.636-5.623-0.248-7.61 1.002l-0.459 0.292-0.289-0.343c-0.395-0.461-1.015-1.448-1.261-2.004-0.542-1.258-0.704-2.282-0.704-4.535 0-2.187 0.112-2.026-1.508-2.114-2.072-0.11-3.651-0.483-4.644-1.112-0.733-0.468-0.613-0.885 0.409-1.376 0.979-0.476 2.325-0.76 4.192-0.877 1.452-0.095 1.486-0.117 1.62-0.819 0.197-1.061 0.979-1.938 1.966-2.216 0.247-0.073 1.627-0.087 5.855-0.080l5.532 0.014 0.401 0.169zM18.116 24.058c1.727 0.424 3.016 1.214 3.573 2.194 0.134 0.227 0.19 0.461 0.218 0.819 0.029 0.446 0.008 0.555-0.162 0.921-0.782 1.661-3.657 2.757-6.581 2.509-3.516-0.292-5.828-2.253-4.918-4.176 0.493-1.038 2.163-2.033 3.924-2.326 0.289-0.043 0.578-0.095 0.634-0.11s0.691-0.015 1.41 0c0.978 0.023 1.451 0.066 1.902 0.169z"></path>
  <path d="M11.127 12.582c-0.437 0.147-0.733 0.337-1.127 0.732-0.346 0.329-0.374 0.716-0.085 0.951 0.268 0.219 0.522 0.19 0.845-0.095 0.409-0.358 0.727-0.504 1.121-0.504 0.395-0.008 0.697 0.132 1.119 0.504 0.324 0.286 0.578 0.314 0.846 0.095 0.141-0.117 0.183-0.212 0.183-0.432 0-0.227-0.049-0.329-0.297-0.578-0.697-0.702-1.733-0.972-2.607-0.673zM19.342 12.576c-0.45 0.168-1.029 0.549-1.261 0.833-0.226 0.279-0.234 0.593 0 0.827 0.232 0.248 0.514 0.234 0.852-0.044 0.831-0.688 1.452-0.709 2.22-0.074 0.197 0.169 0.422 0.3 0.493 0.3 0.345 0 0.627-0.307 0.627-0.673 0-0.234-0.585-0.775-1.113-1.031-0.585-0.286-1.282-0.337-1.818-0.138zM12.148 26.114c-0.204 0.197-0.275 0.483-0.17 0.709 0.078 0.183 0.197 0.256 0.683 0.388 0.219 0.058 0.311 0.131 0.388 0.314 0.099 0.242 0.106 0.242 0.649 0.264l0.542 0.022v-0.205c-0.007-0.292-0.17-0.716-0.381-1.009-0.247-0.337-0.677-0.556-1.163-0.6-0.331-0.029-0.415-0.015-0.549 0.118zM18.877 26.062c-0.352 0.095-0.859 0.571-1 0.943-0.070 0.196-0.118 0.423-0.134 0.659l-0 0.008c-0.014 0.314 0.014 0.388 0.183 0.542 0.415 0.365 0.965 0.080 0.965-0.505 0-0.285 0.211-0.483 0.585-0.555 0.395-0.074 0.536-0.234 0.542-0.607 0-0.49-0.437-0.68-1.142-0.483z"></path>
</symbol>
<symbol id="icon-Ellipse" viewBox="0 0 32 32">
  <path d="M32.030 16.015c0 8.845-7.17 16.015-16.015 16.015s-16.015-7.17-16.015-16.015c0-8.845 7.17-16.015 16.015-16.015s16.015 7.17 16.015 16.015z"></path>
</symbol>
<symbol id="icon-Ellipse7" viewBox="0 0 32 32">
  <path  d="M32.030 16.164c0 6.404-7.17 11.595-16.015 11.595s-16.015-5.191-16.015-11.595c0-6.404 7.17-11.595 16.015-11.595s16.015 5.191 16.015 11.595z"></path>
</symbol>
<symbol id="icon-eva_menu-fill" viewBox="0 0 32 32">
  <path  d="M26.742 14.672h-21.474c-0.7 0-1.267 0.567-1.267 1.266v0.134c0 0.7 0.567 1.266 1.267 1.266h21.474c0.7 0 1.267-0.567 1.267-1.266v-0.134c0-0.7-0.567-1.266-1.267-1.266zM26.742 21.341h-21.474c-0.7 0-1.267 0.567-1.267 1.267v0.133c0 0.7 0.567 1.267 1.267 1.267h21.474c0.7 0 1.267-0.567 1.267-1.267v-0.133c0-0.7-0.567-1.267-1.267-1.267zM26.742 8.003h-21.474c-0.7 0-1.267 0.567-1.267 1.267v0.133c0 0.7 0.567 1.267 1.267 1.267h21.474c0.7 0 1.267-0.567 1.267-1.267v-0.133c0-0.7-0.567-1.267-1.267-1.267z"></path>
</symbol>
<symbol id="icon-facebook" viewBox="0 0 32 32">
  <path  d="M16.004 32.008c8.839 0 16.004-7.165 16.004-16.004s-7.165-16.004-16.004-16.004-16.004 7.165-16.004 16.004 7.165 16.004 16.004 16.004z"></path>
  <path  d="M20.451 15.985h-2.611v9.621h-3.956v-9.621h-1.881v-3.38h1.881v-2.188c0-1.565 0.739-4.015 3.992-4.015l2.93 0.012v3.282h-2.126c-0.348 0-0.839 0.176-0.839 0.923v1.989h2.956l-0.346 3.378z"></path>
</symbol>
<symbol id="icon-github" viewBox="0 0 32 32">
  <path  d="M32.008 16.004c0 8.839-7.165 16.004-16.004 16.004s-16.004-7.165-16.004-16.004c0-8.839 7.165-16.004 16.004-16.004s16.004 7.165 16.004 16.004z"></path>
  <path  d="M16.004 6.59c-5.171 0-9.414 4.243-9.414 9.414 0 4.412 3.096 8.421 7.207 9.414v-3.114c-0.408 0.088-0.781 0.091-1.197-0.031-0.556-0.164-1.008-0.535-1.344-1.1-0.214-0.361-0.593-0.753-0.988-0.724l-0.097-1.099c0.856-0.073 1.595 0.522 2.033 1.259 0.196 0.329 0.421 0.521 0.709 0.605 0.278 0.083 0.577 0.043 0.925-0.080 0.088-0.698 0.408-0.958 0.65-1.327-2.452-0.365-3.43-1.666-3.817-2.692-0.514-1.364-0.238-3.067 0.67-4.144 0.018-0.021 0.050-0.075 0.038-0.113-0.417-1.26 0.090-2.301 0.109-2.411 0.481 0.141 0.559-0.143 2.090 0.786l0.264 0.159c0.111 0.066 0.075 0.028 0.186 0.019 0.59-0.166 1.269-0.266 1.97-0.276l0.006-0c0.668 0.008 1.337 0.104 2.002 0.284l0.086 0.009c-0.008-0.002 0.024-0.006 0.075-0.037 1.911-1.158 1.842-0.78 2.355-0.946 0.019 0.111 0.519 1.169 0.106 2.412-0.056 0.171 1.657 1.74 0.708 4.257-0.388 1.026-1.365 2.328-3.817 2.693 0.314 0.48 0.692 0.734 0.69 1.723v3.887c4.11-0.993 7.207-5.002 7.207-9.414 0-5.171-4.243-9.414-9.414-9.414z"></path>
</symbol>
<symbol id="icon-ice-crema" viewBox="0 0 32 32">
  <path d="M16.111 0.107c0.080 0.215 0.241 1.253 0.241 1.574 0 0.003 0 0.007 0 0.011 0 0.818-0.318 1.562-0.838 2.114l0.001-0.002c-0.449 0.482-0.898 0.749-1.975 1.185-1.198 0.489-1.694 0.783-2.256 1.339-0.569 0.569-0.904 1.191-1.024 1.922-0.134 0.797 0 1.358 0.408 1.68l0.207 0.16-0.328 0.208c-0.662 0.436-1.867 1.46-2.075 1.774-0.402 0.603-0.362 1.165 0.093 1.393l0.214 0.107-0.241 0.228c-0.362 0.341-0.436 0.576-0.382 1.191 0.034 0.409 0.020 0.63-0.073 0.965-0.114 0.436-0.114 0.442 0.033 0.75 0.148 0.301 0.563 0.683 0.938 0.844 0.18 0.080 0.187 0.107 0.228 0.723 0.020 0.356 0.053 1.486 0.080 2.518 0.020 1.031 0.068 1.975 0.107 2.089 0.034 0.12 0.161 0.281 0.276 0.361 0.388 0.268 0.656 0.557 0.829 0.891 0.195 0.382 0.409 1.319 1.058 4.56l0.455 2.276 0.282 0.268c0.535 0.529 1.56 0.77 3.248 0.77 1.694 0 2.704-0.235 3.241-0.764l0.288-0.274 0.414-2.11c0.917-4.613 0.997-4.867 1.714-5.436 0.22-0.181 0.436-0.402 0.475-0.502 0.047-0.114 0.094-0.991 0.127-2.317 0.027-1.178 0.068-2.343 0.094-2.592l0.040-0.448 0.436-0.329c0.549-0.421 0.763-0.803 0.763-1.392-0.006-0.696-0.462-1.46-1.292-2.143l-0.396-0.321 0.195-0.276c0.81-1.117 0.301-2.664-1.206-3.695l-0.455-0.315 0.167-0.174c0.743-0.797 0.864-3.174 0.241-4.827-0.374-0.984-1.232-2.055-2.283-2.846-0.514-0.389-1.935-1.246-2.061-1.246-0.027 0-0.027 0.047-0.006 0.107zM18.038 2.445c0.356 0.349 0.783 0.823 0.951 1.064 0.997 1.393 1.252 3.141 0.649 4.426-0.241 0.522-0.965 1.298-1.634 1.76-1.024 0.71-3.328 1.903-4.934 2.558-2.584 1.052-4.085 1.253-4.258 0.563-0.068-0.261 0.127-0.469 0.951-1.018 0.742-0.509 4.077-2.986 4.137-3.087 0.020-0.027-0.321 0.127-0.749 0.341-1.453 0.737-2.143 0.596-2.109-0.428 0.020-0.743 0.556-1.587 1.298-2.069 0.188-0.12 0.771-0.388 1.307-0.603 1.76-0.709 2.296-1.071 2.892-1.961 0.356-0.529 0.743-1.507 0.77-1.922 0.007-0.147 0.034-0.261 0.053-0.261s0.322 0.288 0.676 0.637zM19.866 10.051c0.489 0.274 0.997 0.743 1.218 1.111 0.389 0.662 0.188 1.326-0.649 2.169-0.91 0.925-2.463 1.808-4.171 2.37-1.574 0.516-3.080 0.757-5.236 0.83l-1.339 0.047 0.871 0.053c1.125 0.074 3.3 0.007 4.144-0.127 2.243-0.356 4.152-1.065 5.517-2.042 0.308-0.221 0.629-0.402 0.717-0.402 0.221 0 1.185 0.925 1.38 1.312 0.107 0.221 0.133 0.382 0.114 0.596-0.1 0.891-1.186 1.366-3.803 1.68-3.2 0.382-7.385 0.007-9.173-0.816-0.845-0.389-0.984-0.61-0.77-1.198 0.067-0.188 0.080-0.409 0.053-0.724-0.034-0.415-0.027-0.469 0.12-0.622 0.335-0.362 0.898-0.569 2.96-1.092 0.723-0.187 1.707-0.482 2.175-0.656 1.138-0.415 3.274-1.494 4.265-2.156 0.931-0.616 1.065-0.643 1.607-0.334zM10.974 18.246c1.406 0.409 2.652 0.529 4.969 0.482 1.741-0.033 2.812-0.14 4.358-0.415 0.316-0.053 0.589-0.1 0.623-0.1 0.074 0 0.053 2.571-0.027 3.248-0.087 0.717-0.282 1.272-0.489 1.406-0.214 0.14-1.286 0.288-2.719 0.368-2.939 0.16-5.959 0-6.896-0.375-0.509-0.207-0.563-0.476-0.569-2.96 0-1.654 0.013-1.881 0.1-1.847 0.053 0.020 0.348 0.107 0.649 0.194zM12.561 23.938c0.482 0.060 1.005 0.12 1.165 0.14l0.289 0.034-0.255 0.281c-0.328 0.355-0.83 1.064-1.011 1.426-0.207 0.415-0.275 0.442-0.582 0.275l-0.261-0.148-0.147-0.91c-0.078-0.506-0.143-0.863-0.216-1.217l0.028 0.165c-0.060-0.173-0.121-0.173 0.99-0.046zM19.699 23.864c0 0.013-0.034 0.187-0.068 0.382-0.040 0.2-0.207 1.292-0.374 2.43-0.341 2.377-0.569 3.495-0.777 3.87-0.288 0.502-0.978 0.797-2.095 0.891-0.436 0.034-1.748-0.053-1.822-0.121-0.053-0.060 1.098-1.486 1.279-1.58 0.167-0.094 0.213-0.080 0.782 0.213 0.663 0.349 0.998 0.403 0.998 0.181s-0.174-0.436-0.603-0.729c-0.395-0.282-0.535-0.443-0.535-0.63 0-0.053 0.194-0.355 0.428-0.669s0.575-0.817 0.749-1.118l0.329-0.542 0.3 0.041c0.609 0.087 0.77 0.080 0.75-0.053-0.013-0.068-0.127-0.261-0.255-0.422-0.127-0.167-0.228-0.335-0.228-0.368 0-0.127 0.622-1.299 0.824-1.547 0.174-0.214 0.315-0.322 0.315-0.228zM15.514 24.399c0.334 0.221 1.593 1.313 1.673 1.446 0.034 0.060-1.258 2.082-1.513 2.37-0.027 0.034-0.167-0.033-0.308-0.14-0.312-0.235-0.692-0.499-1.080-0.752l-0.085-0.052-0.904-0.596 0.542-0.917c0.964-1.614 0.944-1.587 1.151-1.587 0.107 0 0.341 0.1 0.523 0.228zM18.052 24.64c-0.235 0.288-0.428 0.469-0.509 0.469-0.174 0-0.456-0.154-0.931-0.502l-0.396-0.288 0.791-0.047c0.348-0.013 0.665-0.034 0.98-0.065l-0.064 0.005c0.536-0.087 0.536-0.080 0.128 0.428zM12.99 27.861c0.616 0.241 1.661 0.81 1.962 1.065 0.214 0.173 0.214 0.187 0.127 0.401-0.141 0.281-0.279 0.516-0.43 0.741l0.015-0.024c-0.128 0.191-0.277 0.434-0.417 0.682l-0.032 0.061c-0.213 0.415-0.281 0.449-0.723 0.329-0.476-0.141-0.729-0.382-0.863-0.818-0.181-0.609-0.469-2.329-0.436-2.598 0.013-0.1 0.294-0.040 0.797 0.161z"></path>
</symbol>
<symbol id="icon-telegram" viewBox="0 0 32 32">
  <path  d="M32.008 16.004c0 8.839-7.165 16.004-16.004 16.004s-16.004-7.165-16.004-16.004c0-8.839 7.165-16.004 16.004-16.004s16.004 7.165 16.004 16.004z"></path>
  <path  d="M12.872 18.38l-0.318 4.17c0.455 0 0.651-0.183 0.888-0.401l2.131-1.902 4.415 3.019c0.81 0.421 1.38 0.199 1.599-0.696l2.9-12.676c0.257-1.117-0.433-1.554-1.222-1.28l-17.037 6.087c-1.163 0.422-1.145 1.026-0.198 1.301l4.356 1.264 10.117-5.908c0.475-0.295 0.908-0.132 0.553 0.163l-8.184 6.858z"></path>
</symbol>
<symbol id="icon-Vectorclose" viewBox="0 0 32 32">
  <path d="M18.16 16.010l12.639-12.641c0.224-0.264 0.361-0.609 0.361-0.985 0-0.843-0.683-1.526-1.526-1.526-0.377 0-0.721 0.136-0.987 0.362l0.002-0.002-12.639 12.641-12.641-12.655c-0.281-0.308-0.685-0.501-1.133-0.501-0.846 0-1.532 0.686-1.532 1.532 0 0.448 0.192 0.851 0.499 1.131l0.001 0.001 12.657 12.641-12.657 12.641c-0.332 0.282-0.54 0.699-0.54 1.165 0 0.843 0.683 1.526 1.526 1.526 0.466 0 0.883-0.209 1.163-0.538l0.002-0.002 12.657-12.641 12.641 12.641c0.264 0.224 0.609 0.361 0.985 0.361 0.843 0 1.526-0.683 1.526-1.526 0-0.377-0.136-0.721-0.362-0.987l0.002 0.002-12.641-12.641z"></path>
</symbol>
<symbol id="icon-Vectornext" viewBox="0 0 32 32">
  <path d="M8.611 0.704c-0.38 0.449-0.611 1.035-0.611 1.675 0 0.009 0 0.019 0 0.028v-0.001c0 0.637 0.221 1.248 0.611 1.699l10.346 11.91-10.349 11.904c-0.365 0.446-0.586 1.021-0.586 1.648 0 0.017 0 0.033 0 0.050l-0-0.003c0.003 0.63 0.224 1.232 0.611 1.68s0.912 0.698 1.459 0.704c0.587-0.001 1.113-0.262 1.47-0.673l0.002-0.002 11.821-13.61c0.382-0.45 0.614-1.037 0.614-1.679 0-0.007-0-0.014-0-0.021v0.001c0-0.64-0.221-1.251-0.611-1.702l-11.821-13.61c-0.357-0.425-0.885-0.696-1.477-0.704l-0.001-0c-0.554 0-1.088 0.256-1.482 0.704z"></path>
</symbol>
<symbol id="icon-Vectorplay" viewBox="0 0 32 32">
  <path  d="M29.9 13.807l-26.54-13.27c-0.292-0.138-0.634-0.219-0.995-0.219-1.295 0-2.348 1.041-2.366 2.332l-0 0.002v26.528c-0 0.006-0 0.013-0 0.019 0 1.3 1.054 2.355 2.355 2.355 0.392 0 0.762-0.096 1.087-0.266l-0.013 0.006 26.471-13.27c0.78-0.398 1.305-1.195 1.305-2.114s-0.525-1.717-1.291-2.108l-0.013-0.006v0.011z"></path>
</symbol>
<symbol id="icon_weight" viewBox="0 0 32 32">
  <path d="M14.18 0.547c-3.975 0.589-7.248 2.797-8.453 5.686-0.384 0.913-0.487 1.474-0.487 2.574 0.007 0.813 0.036 1.114 0.163 1.552 0.258 0.862 0.443 1.302 0.827 1.92l0.356 0.574-0.4 0.489c-3.154 3.925-3.502 9.446-0.871 13.795 0.982 1.631 2.586 3.235 4.152 4.17l0.466 0.273 12.745-0.108 0.302-0.165c1.057-0.597 2.549-1.927 3.384-3.005 1.209-1.57 2.064-3.473 2.413-5.547l0.010-0.074c0.118-0.741 0.118-2.934-0.007-3.631-0.377-2.149-1.182-3.989-2.453-5.621-0.244-0.309-0.436-0.568-0.436-0.589 0-0.014 0.133-0.237 0.288-0.489 0.362-0.575 0.687-1.316 0.864-1.962 0.199-0.719 0.199-2.516 0-3.235-0.709-2.551-2.837-4.68-5.844-5.852-0.843-0.331-2.284-0.683-3.215-0.797-0.864-0.101-3-0.080-3.805 0.043zM18.678 1.718c3.945 0.769 6.835 3.184 7.367 6.161 0.118 0.669 0.044 1.805-0.155 2.436-0.2 0.619-0.569 1.345-1.005 1.963-0.178 0.252-0.325 0.54-0.325 0.633s0.155 0.338 0.377 0.582c1.846 2.048 2.822 4.615 2.822 7.39-0.007 3.156-1.219 5.924-3.553 8.095-0.399 0.373-0.968 0.841-1.271 1.042l-0.554 0.373-12.213 0.051-0.473-0.302c-1.714-1.114-3.258-2.954-4.115-4.909-1.078-2.472-1.19-5.341-0.31-7.914 0.466-1.337 1.086-2.43 2.031-3.58 0.385-0.461 0.562-0.733 0.562-0.862 0-0.108-0.192-0.461-0.444-0.827-0.886-1.287-1.248-2.718-1.034-4.069 0.222-1.366 0.842-2.487 1.987-3.601 1.494-1.445 3.577-2.4 6.022-2.76 1.012-0.151 3.25-0.093 4.285 0.1z"></path>
  <path d="M14.512 2.984c-3.029 0.496-5.401 2.178-6.176 4.386-0.178 0.496-0.207 0.69-0.207 1.401s0.029 0.907 0.207 1.402c0.11 0.316 0.317 0.756 0.458 0.978 0.384 0.618 0.554 0.64 1.316 0.18 1.094-0.674 2.368-1.19 3.727-1.475l0.078-0.014c0.916-0.187 2.674-0.258 3.672-0.143 1.558 0.18 3.25 0.74 4.602 1.538 0.384 0.222 0.776 0.409 0.871 0.409 0.562 0 1.278-1.617 1.278-2.875 0-2.796-2.674-5.19-6.464-5.787-0.805-0.129-2.587-0.129-3.362 0zM18.169 4.134c1.271 0.273 2.438 0.791 3.318 1.474 1.182 0.913 1.817 2.185 1.713 3.414-0.036 0.489-0.221 1.15-0.332 1.222-0.030 0.014-0.445-0.158-0.917-0.389-0.926-0.454-2.005-0.832-3.132-1.081l-0.097-0.018c-0.687-0.143-0.975-0.165-2.511-0.158-1.515 0-1.832 0.022-2.489 0.158-1.179 0.249-2.222 0.616-3.196 1.099l0.078-0.035c-1.101 0.525-1.042 0.532-1.241-0.116-0.258-0.84-0.096-1.955 0.406-2.796 0.267-0.445 0.998-1.186 1.529-1.552 1.013-0.698 1.899-1.013 3.805-1.359 0.391-0.071 2.564 0.029 3.066 0.137zM16.965 13.407c-0.207 0.26-0.207 0.504 0.007 0.712 0.14 0.137 0.281 0.172 0.791 0.209 1.035 0.075 1.984 0.38 2.815 0.865l-0.031-0.017c0.606 0.359 1.529 1.23 1.943 1.854 0.613 0.898 1.034 2.185 1.034 3.135 0 0.331 0.030 0.431 0.185 0.574 0.236 0.237 0.547 0.237 0.776 0 0.163-0.165 0.169-0.208 0.125-0.912-0.207-3.48-3.184-6.383-6.745-6.579l-0.74-0.043-0.162 0.202z"></path>
</symbol>
<g id="icon-dots" viewBox="0 0 100 32">
  <path fill="#f8d24e" style="fill: var(--color1, #f8d24e)" d="M45.81 25.798c0 0.287-0.219 0.52-0.488 0.52s-0.488-0.233-0.488-0.52c0-0.287 0.219-0.52 0.488-0.52s0.488 0.233 0.488 0.52z"></path>
  <path fill="#f8d24e" style="fill: var(--color1, #f8d24e)" d="M46.949 25.104c0 0.287-0.219 0.52-0.488 0.52s-0.488-0.233-0.488-0.52c0-0.287 0.219-0.52 0.488-0.52s0.488 0.233 0.488 0.52z"></path>
  <path fill="#f8d24e" style="fill: var(--color1, #f8d24e)" d="M44.915 27.706c0 0.287-0.219 0.52-0.488 0.52s-0.488-0.233-0.488-0.52c0-0.287 0.219-0.52 0.488-0.52s0.488 0.233 0.488 0.52z"></path>
  <path fill="#f8d24e" style="fill: var(--color1, #f8d24e)" d="M45.972 27.012c0 0.287-0.219 0.52-0.488 0.52s-0.488-0.233-0.488-0.52c0-0.287 0.219-0.52 0.488-0.52s0.488 0.233 0.488 0.52z"></path>
  <path fill="#f8d24e" style="fill: var(--color1, #f8d24e)" d="M47.193 26.231c0 0.287-0.219 0.52-0.488 0.52s-0.488-0.233-0.488-0.52c0-0.287 0.219-0.52 0.488-0.52s0.488 0.233 0.488 0.52z"></path>
  <path fill="#f8d24e" style="fill: var(--color1, #f8d24e)" d="M48.332 25.538c0 0.287-0.219 0.52-0.488 0.52s-0.488-0.233-0.488-0.52c0-0.287 0.219-0.52 0.488-0.52s0.488 0.233 0.488 0.52z"></path>
  <path fill="#f8d24e" style="fill: var(--color1, #f8d24e)" d="M46.705 27.792c0 0.287-0.219 0.52-0.488 0.52s-0.488-0.233-0.488-0.52c0-0.287 0.219-0.52 0.488-0.52s0.488 0.233 0.488 0.52z"></path>
  <path fill="#f8d24e" style="fill: var(--color1, #f8d24e)" d="M47.762 27.098c0 0.287-0.219 0.52-0.488 0.52s-0.488-0.233-0.488-0.52c0-0.287 0.219-0.52 0.488-0.52s0.488 0.233 0.488 0.52z"></path>
  <path fill="#f8d24e" style="fill: var(--color1, #f8d24e)" d="M48.983 26.318c0 0.287-0.219 0.52-0.488 0.52s-0.488-0.233-0.488-0.52c0-0.287 0.219-0.52 0.488-0.52s0.488 0.233 0.488 0.52z"></path>
  <path fill="#f8d24e" style="fill: var(--color1, #f8d24e)" d="M50.122 25.624c0 0.287-0.219 0.52-0.488 0.52s-0.488-0.233-0.488-0.52c0-0.287 0.219-0.52 0.488-0.52s0.488 0.233 0.488 0.52z"></path>
  <path fill="#f8d24e" style="fill: var(--color1, #f8d24e)" d="M48.82 27.792c0 0.287-0.219 0.52-0.488 0.52s-0.488-0.233-0.488-0.52c0-0.287 0.219-0.52 0.488-0.52s0.488 0.233 0.488 0.52z"></path>
  <path fill="#f8d24e" style="fill: var(--color1, #f8d24e)" d="M49.878 27.098c0 0.287-0.219 0.52-0.488 0.52s-0.488-0.233-0.488-0.52c0-0.287 0.219-0.52 0.488-0.52s0.488 0.233 0.488 0.52z"></path>
  <path fill="#f8d24e" style="fill: var(--color1, #f8d24e)" d="M51.098 26.318c0 0.287-0.219 0.52-0.488 0.52s-0.488-0.233-0.488-0.52c0-0.287 0.219-0.52 0.488-0.52s0.488 0.233 0.488 0.52z"></path>
  <path fill="#f8d24e" style="fill: var(--color1, #f8d24e)" d="M52.238 25.624c0 0.287-0.219 0.52-0.488 0.52s-0.488-0.233-0.488-0.52c0-0.287 0.219-0.52 0.488-0.52s0.488 0.233 0.488 0.52z"></path>
  <path fill="#f8d24e" style="fill: var(--color1, #f8d24e)" d="M50.61 27.706c0 0.287-0.219 0.52-0.488 0.52s-0.488-0.233-0.488-0.52c0-0.287 0.219-0.52 0.488-0.52s0.488 0.233 0.488 0.52z"></path>
  <path fill="#f8d24e" style="fill: var(--color1, #f8d24e)" d="M51.668 27.012c0 0.287-0.219 0.52-0.488 0.52s-0.488-0.233-0.488-0.52c0-0.287 0.219-0.52 0.488-0.52s0.488 0.233 0.488 0.52z"></path>
  <path fill="#f8d24e" style="fill: var(--color1, #f8d24e)" d="M52.889 26.231c0 0.287-0.219 0.52-0.488 0.52s-0.488-0.233-0.488-0.52c0-0.287 0.219-0.52 0.488-0.52s0.488 0.233 0.488 0.52z"></path>
  <path fill="#f8d24e" style="fill: var(--color1, #f8d24e)" d="M54.028 25.538c0 0.287-0.219 0.52-0.488 0.52s-0.488-0.233-0.488-0.52c0-0.287 0.219-0.52 0.488-0.52s0.488 0.233 0.488 0.52z"></path>
  <path fill="#f8d24e" style="fill: var(--color1, #f8d24e)" d="M52.644 27.619c0 0.287-0.219 0.52-0.488 0.52s-0.488-0.233-0.488-0.52c0-0.287 0.219-0.52 0.488-0.52s0.488 0.233 0.488 0.52z"></path>
  <path fill="#f8d24e" style="fill: var(--color1, #f8d24e)" d="M53.702 26.925c0 0.287-0.219 0.52-0.488 0.52s-0.488-0.233-0.488-0.52c0-0.287 0.219-0.52 0.488-0.52s0.488 0.233 0.488 0.52z"></path>
  <path fill="#f8d24e" style="fill: var(--color1, #f8d24e)" d="M54.923 26.145c0 0.287-0.219 0.52-0.488 0.52s-0.488-0.233-0.488-0.52c0-0.287 0.219-0.52 0.488-0.52s0.488 0.233 0.488 0.52z"></path>
  <path fill="#f8d24e" style="fill: var(--color1, #f8d24e)" d="M56.062 25.451c0 0.287-0.219 0.52-0.488 0.52s-0.488-0.233-0.488-0.52c0-0.287 0.219-0.52 0.488-0.52s0.488 0.233 0.488 0.52z"></path>
  <path fill="#f8d24e" style="fill: var(--color1, #f8d24e)" d="M54.516 25.364c0 0.287-0.219 0.52-0.488 0.52s-0.488-0.233-0.488-0.52c0-0.287 0.219-0.52 0.488-0.52s0.488 0.233 0.488 0.52z"></path>
  <path fill="#f8d24e" style="fill: var(--color1, #f8d24e)" d="M55.574 24.67c0 0.287-0.219 0.52-0.488 0.52s-0.488-0.233-0.488-0.52c0-0.287 0.219-0.52 0.488-0.52s0.488 0.233 0.488 0.52z"></path>
  <path fill="#f8d24e" style="fill: var(--color1, #f8d24e)" d="M56.794 23.89c0 0.287-0.219 0.52-0.488 0.52s-0.488-0.233-0.488-0.52c0-0.287 0.219-0.52 0.488-0.52s0.488 0.233 0.488 0.52z"></path>
  <path fill="#f8d24e" style="fill: var(--color1, #f8d24e)" d="M57.933 23.196c0 0.287-0.219 0.52-0.488 0.52s-0.488-0.233-0.488-0.52c0-0.287 0.219-0.52 0.488-0.52s0.488 0.233 0.488 0.52z"></path>
</g>
</defs>
</svg>
